<svg xmlns="http://www.w3.org/2000/svg" viewBox="0 0 800 600" width="800" height="600">
  <!-- Zandvoort Circuit SVG Track Map -->
  <g id="track" fill="none" stroke="#FFFFFF" stroke-width="3">
    <!-- Main track path - Zandvoort layout -->
    <path d="M 650 450 
             C 620 480, 550 500, 480 490
             C 410 480, 350 460, 300 420
             C 250 380, 220 320, 200 260
             C 180 200, 190 140, 220 100
             C 250 60, 300 40, 360 50
             C 420 60, 480 90, 520 130
             C 560 170, 580 220, 570 280
             C 560 340, 530 380, 490 400
             C 450 420, 400 420, 360 400
             C 320 380, 300 350, 310 310
             C 320 270, 360 240, 420 230
             C 480 220, 540 230, 580 260
             C 620 290, 640 340, 630 390
             C 620 440, 680 450, 650 450 Z" />
  </g>
</svg>
